# Blender v2.82 (sub 7) OBJ File: 'TempleOSObjects.blend'
# www.blender.org
mtllib TempleOSLeftSide.mtl
o LeftSide_Cylinder
v -0.544381 0.108156 0.043761
v -0.442385 0.137805 -0.083761
v -0.454905 0.107861 0.043761
v -0.361818 0.056703 -0.083761
v -0.391844 0.044382 0.043761
v -0.362196 -0.057614 -0.083761
v -0.392140 -0.045095 0.043761
v -0.443297 -0.138181 -0.083761
v -0.455619 -0.108155 0.043761
v -0.557615 -0.137803 -0.083761
v -0.545095 -0.107859 0.043761
v -0.638182 -0.056702 -0.083761
v -0.608155 -0.044380 0.043761
v -0.637804 0.057616 -0.083761
v -0.607860 0.045096 0.043761
v -0.556702 0.138183 -0.083761
v -0.513343 -0.011031 -0.021448
v -0.513343 0.017077 -0.021448
v -0.513343 -0.011031 -0.490330
v -0.513343 0.017077 -0.490330
v -0.485235 -0.011031 -0.021448
v -0.485235 0.017077 -0.021448
v -0.485235 -0.011031 -0.490330
v -0.485235 0.017077 -0.490330
v -0.391913 -0.011006 -0.076171
v -0.391913 0.016384 -0.076171
v -0.511602 -0.011006 -0.466371
v -0.511602 0.016384 -0.466371
v -0.365727 -0.011006 -0.084203
v -0.365727 0.016384 -0.084203
v -0.485416 -0.011006 -0.474403
v -0.485416 0.016384 -0.474403
v -0.486350 -0.011006 -0.466123
v -0.486350 0.016384 -0.466123
v -0.607356 -0.011006 -0.076330
v -0.607356 0.016384 -0.076330
v -0.512509 -0.011006 -0.474244
v -0.512509 0.016384 -0.474244
v -0.633514 -0.011006 -0.084451
v -0.633514 0.016384 -0.084451
vt 0.485292 0.457054
vt 0.485292 0.699219
vt 0.447454 0.699219
vt 0.447454 0.457054
vt 0.386913 0.699219
vt 0.386913 0.457054
vt 0.326371 0.699219
vt 0.326371 0.457054
vt 0.265830 0.699219
vt 0.265830 0.457054
vt 0.205289 0.699219
vt 0.205289 0.457054
vt 0.144747 0.699219
vt 0.144747 0.457054
vt 0.084206 0.699219
vt 0.084206 0.457054
vt 0.023665 0.699219
vt 0.023665 0.457054
vt 0.175528 0.436031
vt 0.089110 0.444543
vt 0.021985 0.389455
vt 0.013473 0.303037
vt 0.068561 0.235912
vt 0.154979 0.227400
vt 0.222104 0.282488
vt 0.230616 0.368906
vt 0.172234 0.603074
vt 0.350661 0.585501
vt 0.464402 0.446907
vt 0.446829 0.268479
vt 0.308235 0.154738
vt 0.129807 0.172312
vt 0.016066 0.310906
vt 0.033640 0.489334
vt 0.681359 0.189904
vt 0.824005 0.189904
vt 0.824005 0.332551
vt 0.681359 0.332551
vt 0.824005 0.475197
vt 0.681359 0.475197
vt 0.824005 0.617843
vt 0.681359 0.617843
vt 0.182586 0.578137
vt 0.303668 0.578137
vt 0.303668 0.699219
vt 0.182586 0.699219
vt 0.538713 0.475197
vt 0.538713 0.617843
vt 0.966651 0.475197
vt 0.966651 0.617843
vt 0.681359 0.189904
vt 0.824005 0.189904
vt 0.824005 0.332551
vt 0.681359 0.332551
vt 0.824005 0.475197
vt 0.681359 0.475197
vt 0.824005 0.617843
vt 0.681359 0.617843
vt 0.375000 0.750000
vt 0.625000 0.750000
vt 0.625000 1.000000
vt 0.375000 1.000000
vt 0.538713 0.475197
vt 0.538713 0.617843
vt 0.966651 0.475197
vt 0.966651 0.617843
vt 0.681359 0.189904
vt 0.824005 0.189904
vt 0.824005 0.332551
vt 0.681359 0.332551
vt 0.375000 0.250000
vt 0.625000 0.250000
vt 0.625000 0.500000
vt 0.375000 0.500000
vt 0.681359 0.475197
vt 0.824005 0.475197
vt 0.824005 0.617843
vt 0.681359 0.617843
vt 0.824005 0.760489
vt 0.681359 0.760489
vt 0.538713 0.475197
vt 0.538713 0.617843
vt 0.966651 0.475197
vt 0.966651 0.617843
vn 0.0032 0.9734 0.2289
vn 0.6906 0.6861 0.2289
vn 0.9734 -0.0032 0.2289
vn 0.6861 -0.6906 0.2289
vn -0.0032 -0.9734 0.2289
vn -0.6906 -0.6861 0.2289
vn -0.9734 0.0032 0.2289
vn -0.6861 0.6906 0.2289
vn -0.0000 -0.0000 1.0000
vn 0.0000 0.0000 -1.0000
vn -1.0000 0.0000 0.0000
vn 1.0000 -0.0000 0.0000
vn 0.0000 -1.0000 -0.0000
vn 0.0000 1.0000 0.0000
vn -0.9560 0.0000 0.2933
vn -0.2933 0.0000 -0.9560
vn 0.9560 0.0000 -0.2933
vn 0.2933 0.0000 0.9560
vn 0.9550 0.0000 0.2965
vn -0.2965 0.0000 0.9550
vn -0.9550 0.0000 -0.2965
vn 0.2965 0.0000 -0.9550
usemtl Material.001
s off
f 16/1/1 1/2/1 3/3/1 2/4/1
f 2/4/2 3/3/2 5/5/2 4/6/2
f 4/6/3 5/5/3 7/7/3 6/8/3
f 6/8/4 7/7/4 9/9/4 8/10/4
f 8/10/5 9/9/5 11/11/5 10/12/5
f 10/12/6 11/11/6 13/13/6 12/14/6
f 12/14/7 13/13/7 15/15/7 14/16/7
f 14/16/8 15/15/8 1/17/8 16/18/8
f 3/19/9 1/20/9 15/21/9 13/22/9 11/23/9 9/24/9 7/25/9 5/26/9
f 16/27/10 2/28/10 4/29/10 6/30/10 8/31/10 10/32/10 12/33/10 14/34/10
f 17/35/11 18/36/11 20/37/11 19/38/11
f 19/38/10 20/37/10 24/39/10 23/40/10
f 23/40/12 24/39/12 22/41/12 21/42/12
f 21/43/9 22/44/9 18/45/9 17/46/9
f 19/47/13 23/40/13 21/42/13 17/48/13
f 24/39/14 20/49/14 18/50/14 22/41/14
f 25/51/15 26/52/15 28/53/15 27/54/15
f 27/54/16 28/53/16 32/55/16 31/56/16
f 31/56/17 32/55/17 30/57/17 29/58/17
f 29/59/18 30/60/18 26/61/18 25/62/18
f 27/63/13 31/56/13 29/58/13 25/64/13
f 32/55/14 28/65/14 26/66/14 30/57/14
f 33/67/19 34/68/19 36/69/19 35/70/19
f 35/71/20 36/72/20 40/73/20 39/74/20
f 39/75/21 40/76/21 38/77/21 37/78/21
f 37/78/22 38/77/22 34/79/22 33/80/22
f 35/81/13 39/75/13 37/78/13 33/82/13
f 40/76/14 36/83/14 34/84/14 38/77/14
