# Blender v2.82 (sub 7) OBJ File: 'TempleOSObjects.blend'
# www.blender.org
mtllib TempleOSTop.mtl
o TempleTop_Cube.002
v -0.539531 -0.068816 -0.486248
v -0.539531 0.068816 -0.486248
v 0.000000 0.068816 -0.707563
v 0.539531 -0.068816 -0.486248
v 0.539531 0.068816 -0.486248
v 0.000000 -0.068816 -0.707563
vt 0.375000 0.000000
vt 0.625000 0.000000
vt 0.625000 0.250000
vt 0.375000 0.250000
vt 0.375000 0.500000
vt 0.625000 0.500000
vt 0.625000 0.750000
vt 0.375000 0.750000
vt 0.625000 1.000000
vt 0.375000 1.000000
vt 0.125000 0.750000
vt 0.875000 0.500000
vt 0.875000 0.750000
vn -0.3795 0.0000 -0.9252
vn 0.3795 0.0000 -0.9252
vn 0.0000 0.0000 1.0000
vn 0.0000 -1.0000 0.0000
vn 0.0000 1.0000 0.0000
usemtl None
s off
f 1/1/1 2/2/1 3/3/1 6/4/1
f 6/5/2 3/6/2 5/7/2 4/8/2
f 4/8/3 5/7/3 2/9/3 1/10/3
f 6/5/4 4/8/4 1/11/4
f 3/12/5 2/13/5 5/7/5
