# Blender v2.82 (sub 7) OBJ File: 'TempleOSObjects.blend'
# www.blender.org
mtllib TempleOSRight.mtl
o RightSide_Cylinder.001
v 0.455619 0.108156 0.043761
v 0.557615 0.137805 -0.083761
v 0.545095 0.107861 0.043761
v 0.638182 0.056703 -0.083761
v 0.608156 0.044382 0.043761
v 0.637804 -0.057614 -0.083761
v 0.607860 -0.045095 0.043761
v 0.556703 -0.138181 -0.083761
v 0.544381 -0.108155 0.043761
v 0.442385 -0.137803 -0.083761
v 0.454905 -0.107859 0.043761
v 0.361818 -0.056702 -0.083761
v 0.391845 -0.044380 0.043761
v 0.362196 0.057616 -0.083761
v 0.392140 0.045096 0.043761
v 0.443298 0.138183 -0.083761
v 0.486657 -0.011031 -0.021448
v 0.486657 0.017077 -0.021448
v 0.486657 -0.011031 -0.490330
v 0.486657 0.017077 -0.490330
v 0.514765 -0.011031 -0.021448
v 0.514765 0.017077 -0.021448
v 0.514765 -0.011031 -0.490330
v 0.514765 0.017077 -0.490330
v 0.608087 -0.011006 -0.076171
v 0.608087 0.016384 -0.076171
v 0.488398 -0.011006 -0.466371
v 0.488398 0.016384 -0.466371
v 0.634273 -0.011006 -0.084203
v 0.634273 0.016384 -0.084203
v 0.514584 -0.011006 -0.474403
v 0.514584 0.016384 -0.474403
v 0.513650 -0.011006 -0.466123
v 0.513650 0.016384 -0.466123
v 0.392644 -0.011006 -0.076330
v 0.392644 0.016384 -0.076330
v 0.487491 -0.011006 -0.474244
v 0.487491 0.016384 -0.474244
v 0.366486 -0.011006 -0.084451
v 0.366486 0.016384 -0.084451
v 0.443298 0.138183 -0.083761
v 0.443298 0.138183 -0.083761
v 0.557615 0.137805 -0.083761
v 0.557615 0.137805 -0.083761
v 0.545095 0.107861 0.043761
v 0.545095 0.107861 0.043761
v 0.455619 0.108156 0.043761
v 0.455619 0.108156 0.043761
v 0.638182 0.056703 -0.083761
v 0.638182 0.056703 -0.083761
v 0.608156 0.044382 0.043761
v 0.608156 0.044382 0.043761
v 0.637804 -0.057614 -0.083761
v 0.637804 -0.057614 -0.083761
v 0.607860 -0.045095 0.043761
v 0.607860 -0.045095 0.043761
v 0.556703 -0.138181 -0.083761
v 0.556703 -0.138181 -0.083761
v 0.544381 -0.108155 0.043761
v 0.544381 -0.108155 0.043761
v 0.442385 -0.137803 -0.083761
v 0.442385 -0.137803 -0.083761
v 0.454905 -0.107859 0.043761
v 0.454905 -0.107859 0.043761
v 0.361818 -0.056702 -0.083761
v 0.361818 -0.056702 -0.083761
v 0.391845 -0.044380 0.043761
v 0.391845 -0.044380 0.043761
v 0.362196 0.057616 -0.083761
v 0.362196 0.057616 -0.083761
v 0.392140 0.045096 0.043761
v 0.392140 0.045096 0.043761
v 0.486657 -0.011031 -0.490330
v 0.486657 -0.011031 -0.490330
v 0.486657 -0.011031 -0.021448
v 0.486657 -0.011031 -0.021448
v 0.486657 0.017077 -0.021448
v 0.486657 0.017077 -0.021448
v 0.486657 0.017077 -0.490330
v 0.486657 0.017077 -0.490330
v 0.514765 -0.011031 -0.490330
v 0.514765 -0.011031 -0.490330
v 0.514765 0.017077 -0.490330
v 0.514765 0.017077 -0.490330
v 0.514765 -0.011031 -0.021448
v 0.514765 -0.011031 -0.021448
v 0.514765 0.017077 -0.021448
v 0.514765 0.017077 -0.021448
v 0.488398 -0.011006 -0.466371
v 0.488398 -0.011006 -0.466371
v 0.608087 -0.011006 -0.076171
v 0.608087 -0.011006 -0.076171
v 0.608087 0.016384 -0.076171
v 0.608087 0.016384 -0.076171
v 0.488398 0.016384 -0.466371
v 0.488398 0.016384 -0.466371
v 0.514584 -0.011006 -0.474403
v 0.514584 -0.011006 -0.474403
v 0.514584 0.016384 -0.474403
v 0.514584 0.016384 -0.474403
v 0.634273 -0.011006 -0.084203
v 0.634273 -0.011006 -0.084203
v 0.634273 0.016384 -0.084203
v 0.634273 0.016384 -0.084203
v 0.392644 -0.011006 -0.076330
v 0.392644 -0.011006 -0.076330
v 0.513650 -0.011006 -0.466123
v 0.513650 -0.011006 -0.466123
v 0.513650 0.016384 -0.466123
v 0.513650 0.016384 -0.466123
v 0.392644 0.016384 -0.076330
v 0.392644 0.016384 -0.076330
v 0.366486 -0.011006 -0.084451
v 0.366486 -0.011006 -0.084451
v 0.366486 0.016384 -0.084451
v 0.366486 0.016384 -0.084451
v 0.487491 -0.011006 -0.474244
v 0.487491 -0.011006 -0.474244
v 0.487491 0.016384 -0.474244
v 0.487491 0.016384 -0.474244
vt 0.470358 0.475985
vt 0.470358 0.568041
vt 0.455974 0.568041
vt 0.455974 0.475985
vt 0.455974 0.475985
vt 0.455974 0.568041
vt 0.432960 0.568041
vt 0.432960 0.475985
vt 0.526004 0.475985
vt 0.526004 0.568041
vt 0.502990 0.568041
vt 0.502990 0.475985
vt 0.502990 0.475985
vt 0.502990 0.568041
vt 0.479976 0.568041
vt 0.479976 0.475985
vt 0.479976 0.475985
vt 0.479976 0.568041
vt 0.456962 0.568041
vt 0.456962 0.475985
vt 0.456962 0.475985
vt 0.456962 0.568041
vt 0.433948 0.568041
vt 0.433948 0.475985
vt 0.433948 0.475985
vt 0.433948 0.568041
vt 0.410934 0.568041
vt 0.410934 0.475985
vt 0.410934 0.475985
vt 0.410934 0.568041
vt 0.387920 0.568041
vt 0.387920 0.475985
vt 0.445649 0.467994
vt 0.412798 0.471229
vt 0.387281 0.450288
vt 0.384046 0.417437
vt 0.404987 0.391920
vt 0.437837 0.388685
vt 0.463354 0.409626
vt 0.466590 0.442477
vt 0.433965 0.480848
vt 0.491119 0.475219
vt 0.527552 0.430825
vt 0.521923 0.373671
vt 0.477529 0.337237
vt 0.420375 0.342866
vt 0.383941 0.387261
vt 0.389571 0.444415
vt 0.136621 0.360492
vt 0.210753 0.360492
vt 0.210753 0.434624
vt 0.136621 0.434624
vt 0.196172 0.434640
vt 0.267868 0.434640
vt 0.267868 0.506336
vt 0.196172 0.506336
vt 0.196172 0.506336
vt 0.267868 0.506336
vt 0.267868 0.578032
vt 0.196172 0.578032
vt 0.819699 0.248918
vt 0.844500 0.248918
vt 0.844500 0.273719
vt 0.819699 0.273719
vt 0.124476 0.506336
vt 0.196172 0.506336
vt 0.196172 0.578032
vt 0.124476 0.578032
vt 0.210753 0.508756
vt 0.284885 0.508756
vt 0.284885 0.582888
vt 0.210753 0.582888
vt 0.136621 0.360492
vt 0.210753 0.360492
vt 0.210753 0.434624
vt 0.136621 0.434624
vt 0.053778 0.402815
vt 0.150672 0.402815
vt 0.150672 0.499709
vt 0.053778 0.499709
vt 0.196172 0.506336
vt 0.267868 0.506336
vt 0.267868 0.578032
vt 0.196172 0.578032
vt 0.843787 0.273809
vt 0.886936 0.273809
vt 0.886936 0.316958
vt 0.843787 0.316958
vt 0.124476 0.506336
vt 0.196172 0.506336
vt 0.196172 0.578032
vt 0.124476 0.578032
vt 0.210753 0.508756
vt 0.284885 0.508756
vt 0.284885 0.582888
vt 0.210753 0.582888
vt 0.196172 0.362944
vt 0.267868 0.362944
vt 0.267868 0.434640
vt 0.196172 0.434640
vt 0.843787 0.187511
vt 0.886936 0.187511
vt 0.886936 0.230660
vt 0.843787 0.230660
vt 0.136621 0.508756
vt 0.210753 0.508756
vt 0.210753 0.582888
vt 0.136621 0.582888
vt 0.053778 0.596603
vt 0.150672 0.596603
vt 0.150672 0.693497
vt 0.053778 0.693497
vt 0.124476 0.506336
vt 0.196172 0.506336
vt 0.196172 0.578032
vt 0.124476 0.578032
vt 0.210753 0.508756
vt 0.284885 0.508756
vt 0.284885 0.582888
vt 0.210753 0.582888
vn 0.0032 0.9734 0.2289
vn 0.6906 0.6861 0.2289
vn 0.9734 -0.0032 0.2289
vn 0.6861 -0.6906 0.2289
vn -0.0032 -0.9734 0.2289
vn -0.6906 -0.6861 0.2289
vn -0.9734 0.0032 0.2289
vn -0.6861 0.6906 0.2289
vn -0.0000 -0.0000 1.0000
vn 0.0000 0.0000 -1.0000
vn -1.0000 0.0000 0.0000
vn 1.0000 0.0000 0.0000
vn 0.0000 -1.0000 -0.0000
vn 0.0000 1.0000 0.0000
vn -0.9560 0.0000 0.2933
vn -0.2933 0.0000 -0.9560
vn 0.9560 0.0000 -0.2933
vn 0.2933 0.0000 0.9560
vn 0.9550 0.0000 0.2965
vn -0.2965 0.0000 0.9550
vn -0.9550 0.0000 -0.2965
vn 0.2965 0.0000 -0.9550
usemtl Material.001
s off
f 41/1/1 47/2/1 45/3/1 43/4/1
f 44/5/2 46/6/2 51/7/2 49/8/2
f 50/9/3 52/10/3 55/11/3 53/12/3
f 54/13/4 56/14/4 59/15/4 57/16/4
f 58/17/5 60/18/5 63/19/5 61/20/5
f 62/21/6 64/22/6 67/23/6 65/24/6
f 66/25/7 68/26/7 71/27/7 69/28/7
f 70/29/8 72/30/8 48/31/8 42/32/8
f 3/33/9 1/34/9 15/35/9 13/36/9 11/37/9 9/38/9 7/39/9 5/40/9
f 16/41/10 2/42/10 4/43/10 6/44/10 8/45/10 10/46/10 12/47/10 14/48/10
f 75/49/11 77/50/11 79/51/11 73/52/11
f 74/53/10 80/54/10 83/55/10 81/56/10
f 82/57/12 84/58/12 87/59/12 85/60/12
f 86/61/9 88/62/9 78/63/9 76/64/9
f 19/65/13 23/66/13 21/67/13 17/68/13
f 24/69/14 20/70/14 18/71/14 22/72/14
f 91/73/15 93/74/15 95/75/15 89/76/15
f 90/77/16 96/78/16 99/79/16 97/80/16
f 98/81/17 100/82/17 103/83/17 101/84/17
f 102/85/18 104/86/18 94/87/18 92/88/18
f 27/89/13 31/90/13 29/91/13 25/92/13
f 32/93/14 28/94/14 26/95/14 30/96/14
f 107/97/19 109/98/19 111/99/19 105/100/19
f 106/101/20 112/102/20 115/103/20 113/104/20
f 114/105/21 116/106/21 119/107/21 117/108/21
f 118/109/22 120/110/22 110/111/22 108/112/22
f 35/113/13 39/114/13 37/115/13 33/116/13
f 40/117/14 36/118/14 34/119/14 38/120/14
