# Blender v2.82 (sub 7) OBJ File: 'TempleOSObjects.blend'
# www.blender.org
mtllib TempleOSSword.mtl
o Sword_Cube.001
v -0.551286 -0.040000 0.536219
v -0.551286 0.040000 0.536219
v 0.677374 -0.040000 -0.932937
v 0.677374 0.040000 -0.932937
v -0.445364 -0.040000 0.625420
v -0.445364 0.040000 0.625420
v 0.783297 -0.040000 -0.843736
v 0.783297 0.040000 -0.843736
v 0.820432 0.040000 -0.995322
v -0.611651 0.040000 0.607901
v 0.820432 -0.040000 -0.995322
v -0.611651 -0.040000 0.607901
v -0.505729 0.040000 0.697101
v -0.505729 -0.040000 0.697101
v -0.795684 0.040000 1.022504
v -0.869882 0.040000 0.961349
v -0.869882 -0.040000 0.961349
v -0.795684 -0.040000 1.022504
v -0.391521 0.040000 0.670762
v -0.391521 -0.040000 0.670762
v -0.451886 0.040000 0.742444
v -0.451886 -0.040000 0.742444
v -0.320614 0.040000 0.730475
v -0.320614 -0.040000 0.730475
v -0.380980 0.040000 0.802157
v -0.380980 -0.040000 0.802157
v -0.604986 -0.040000 0.490997
v -0.604986 0.040000 0.490997
v -0.665351 -0.040000 0.562678
v -0.665351 0.040000 0.562678
v -0.673222 -0.040000 0.433533
v -0.673222 0.040000 0.433533
v -0.733587 -0.040000 0.505214
v -0.733587 0.040000 0.505214
v -0.272027 0.040000 0.672779
v -0.272027 -0.040000 0.672779
v -0.626196 -0.040000 0.377692
v -0.626196 0.040000 0.377692
v 0.677374 -0.040000 -0.932937
v 0.677374 -0.040000 -0.932937
v 0.677374 -0.040000 -0.932937
v -0.551286 -0.040000 0.536219
v -0.551286 -0.040000 0.536219
v -0.551286 -0.040000 0.536219
v -0.551286 -0.040000 0.536219
v -0.551286 0.040000 0.536219
v -0.551286 0.040000 0.536219
v -0.551286 0.040000 0.536219
v -0.551286 0.040000 0.536219
v 0.677374 0.040000 -0.932937
v 0.677374 0.040000 -0.932937
v 0.677374 0.040000 -0.932937
v 0.783297 -0.040000 -0.843736
v 0.783297 -0.040000 -0.843736
v 0.783297 -0.040000 -0.843736
v 0.783297 0.040000 -0.843736
v 0.783297 0.040000 -0.843736
v 0.783297 0.040000 -0.843736
v -0.445364 -0.040000 0.625420
v -0.445364 -0.040000 0.625420
v -0.445364 -0.040000 0.625420
v -0.445364 -0.040000 0.625420
v -0.445364 0.040000 0.625420
v -0.445364 0.040000 0.625420
v -0.445364 0.040000 0.625420
v -0.445364 0.040000 0.625420
v -0.611651 -0.040000 0.607901
v -0.611651 -0.040000 0.607901
v -0.611651 -0.040000 0.607901
v -0.611651 -0.040000 0.607901
v -0.505729 0.040000 0.697101
v -0.505729 0.040000 0.697101
v -0.505729 0.040000 0.697101
v -0.505729 0.040000 0.697101
v -0.611651 0.040000 0.607901
v -0.611651 0.040000 0.607901
v -0.611651 0.040000 0.607901
v -0.611651 0.040000 0.607901
v -0.505729 -0.040000 0.697101
v -0.505729 -0.040000 0.697101
v -0.505729 -0.040000 0.697101
v -0.505729 -0.040000 0.697101
v 0.820432 0.040000 -0.995322
v 0.820432 0.040000 -0.995322
v 0.820432 -0.040000 -0.995322
v 0.820432 -0.040000 -0.995322
v -0.795684 0.040000 1.022504
v -0.795684 0.040000 1.022504
v -0.869882 0.040000 0.961349
v -0.869882 0.040000 0.961349
v -0.869882 -0.040000 0.961349
v -0.869882 -0.040000 0.961349
v -0.795684 -0.040000 1.022504
v -0.795684 -0.040000 1.022504
v -0.391521 0.040000 0.670762
v -0.391521 0.040000 0.670762
v -0.391521 0.040000 0.670762
v -0.391521 0.040000 0.670762
v -0.391521 -0.040000 0.670762
v -0.391521 -0.040000 0.670762
v -0.391521 -0.040000 0.670762
v -0.391521 -0.040000 0.670762
v -0.451886 0.040000 0.742444
v -0.451886 0.040000 0.742444
v -0.451886 0.040000 0.742444
v -0.451886 -0.040000 0.742444
v -0.451886 -0.040000 0.742444
v -0.451886 -0.040000 0.742444
v -0.320614 0.040000 0.730475
v -0.320614 0.040000 0.730475
v -0.320614 0.040000 0.730475
v -0.320614 -0.040000 0.730475
v -0.320614 -0.040000 0.730475
v -0.320614 -0.040000 0.730475
v -0.380980 0.040000 0.802157
v -0.380980 0.040000 0.802157
v -0.380980 -0.040000 0.802157
v -0.380980 -0.040000 0.802157
v -0.604986 -0.040000 0.490997
v -0.604986 -0.040000 0.490997
v -0.604986 -0.040000 0.490997
v -0.604986 -0.040000 0.490997
v -0.604986 0.040000 0.490997
v -0.604986 0.040000 0.490997
v -0.604986 0.040000 0.490997
v -0.604986 0.040000 0.490997
v -0.665351 -0.040000 0.562678
v -0.665351 -0.040000 0.562678
v -0.665351 -0.040000 0.562678
v -0.665351 0.040000 0.562678
v -0.665351 0.040000 0.562678
v -0.665351 0.040000 0.562678
v -0.673222 -0.040000 0.433533
v -0.673222 -0.040000 0.433533
v -0.673222 -0.040000 0.433533
v -0.673222 0.040000 0.433533
v -0.673222 0.040000 0.433533
v -0.673222 0.040000 0.433533
v -0.733587 -0.040000 0.505214
v -0.733587 -0.040000 0.505214
v -0.733587 0.040000 0.505214
v -0.733587 0.040000 0.505214
v -0.272027 0.040000 0.672779
v -0.272027 0.040000 0.672779
v -0.272027 -0.040000 0.672779
v -0.272027 -0.040000 0.672779
v -0.626196 -0.040000 0.377692
v -0.626196 -0.040000 0.377692
v -0.626196 0.040000 0.377692
v -0.626196 0.040000 0.377692
vt 0.167917 0.228902
vt 0.301916 0.228902
vt 0.301916 0.362901
vt 0.167917 0.362901
vt 0.435914 0.496900
vt 0.301916 0.496900
vt 0.435914 0.496900
vt 0.167917 0.496900
vt 0.301916 0.496900
vt 0.301916 0.630898
vt 0.167917 0.630898
vt 0.167917 0.228902
vt 0.301916 0.228902
vt 0.301916 0.228902
vt 0.167917 0.228902
vt 0.033918 0.496900
vt 0.167917 0.496900
vt 0.167917 0.630898
vt 0.033918 0.630898
vt 0.301916 0.496900
vt 0.435914 0.496900
vt 0.435914 0.630898
vt 0.301916 0.630898
vt 0.301916 0.228902
vt 0.167917 0.228902
vt 0.167917 0.228902
vt 0.301916 0.228902
vt 0.167917 0.362901
vt 0.301916 0.362901
vt 0.301916 0.362901
vt 0.167917 0.362901
vt 0.301916 0.496900
vt 0.167917 0.496900
vt 0.167917 0.496900
vt 0.301916 0.496900
vt 0.167917 0.496900
vt 0.033918 0.496900
vt 0.167917 0.496900
vt 0.033918 0.630898
vt 0.167917 0.630898
vt 0.167917 0.630898
vt 0.033918 0.630898
vt 0.301916 0.630898
vt 0.435914 0.630898
vt 0.435914 0.630898
vt 0.301916 0.630898
vt 0.167917 0.630898
vt 0.167917 0.630898
vt 0.167917 0.630898
vt 0.167917 0.630898
vt 0.167917 0.630898
vt 0.301916 0.630898
vt 0.301916 0.764897
vt 0.167917 0.764897
vt 0.033918 0.630898
vt 0.167917 0.630898
vt 0.167917 0.630898
vt 0.033918 0.630898
vt 0.167917 0.630898
vt 0.301916 0.630898
vt 0.301916 0.630898
vt 0.167917 0.630898
vt 0.301916 0.630898
vt 0.435914 0.630898
vt 0.435914 0.630898
vt 0.301916 0.630898
vt 0.301916 0.630898
vt 0.301916 0.630898
vt 0.301916 0.630898
vt 0.301916 0.630898
vt 0.301916 0.630898
vt 0.167917 0.630898
vt 0.167917 0.630898
vt 0.301916 0.630898
vt 0.301916 0.630898
vt 0.301916 0.630898
vt 0.301916 0.630898
vt 0.301916 0.630898
vt 0.167917 0.630898
vt 0.301916 0.630898
vt 0.301916 0.630898
vt 0.167917 0.630898
vt 0.167917 0.630898
vt 0.301916 0.630898
vt 0.301916 0.630898
vt 0.167917 0.630898
vt 0.301916 0.630898
vt 0.167917 0.630898
vt 0.167917 0.630898
vt 0.301916 0.630898
vt 0.167917 0.630898
vt 0.167917 0.630898
vt 0.167917 0.630898
vt 0.167917 0.630898
vt 0.301916 0.630898
vt 0.167917 0.630898
vt 0.167917 0.630898
vt 0.301916 0.630898
vt 0.167917 0.228902
vt 0.301916 0.228902
vt 0.301916 0.228902
vt 0.167917 0.228902
vt 0.301916 0.228902
vt 0.167917 0.228902
vt 0.167917 0.228902
vt 0.301916 0.228902
vt 0.033918 0.630898
vt 0.033918 0.630898
vt 0.033918 0.630898
vt 0.033918 0.630898
vt 0.435914 0.630898
vt 0.435914 0.630898
vt 0.435914 0.630898
vt 0.435914 0.630898
vt 0.301916 0.228902
vt 0.167917 0.228902
vt 0.167917 0.228902
vt 0.301916 0.228902
vt 0.301916 0.228902
vt 0.167917 0.228902
vt 0.167917 0.228902
vt 0.301916 0.228902
vt 0.435914 0.630898
vt 0.435914 0.630898
vt 0.435914 0.630898
vt 0.435914 0.630898
vt 0.033918 0.630898
vt 0.033918 0.630898
vt 0.033918 0.630898
vt 0.033918 0.630898
vt 0.167917 0.630898
vt 0.167917 0.630898
vt 0.167917 0.630898
vt 0.301916 0.630898
vt 0.301916 0.630898
vt 0.301916 0.630898
vt 0.167917 0.630898
vt 0.301916 0.630898
vt 0.301916 0.630898
vt 0.167917 0.630898
vt 0.033918 0.630898
vt 0.033918 0.630898
vt 0.033918 0.630898
vt 0.167917 0.228902
vt 0.301916 0.228902
vt 0.301916 0.228902
vt 0.167917 0.228902
vt 0.435914 0.630898
vt 0.435914 0.630898
vt 0.435914 0.630898
vn -0.7671 0.0000 -0.6415
vn 0.0000 1.0000 -0.0000
vn 0.7671 0.0000 0.6415
vn -0.6441 0.0000 0.7649
vn 0.0000 -1.0000 0.0000
vn -0.8075 0.0000 -0.5899
vn -0.3997 0.0000 -0.9166
vn 0.9713 0.0000 0.2379
vn -0.6360 0.0000 0.7717
vn 0.7466 0.0000 0.6653
vn 0.6441 0.0000 -0.7649
vn 0.7649 0.0000 0.6441
vn -0.7649 0.0000 -0.6441
vn 0.9829 0.0000 -0.1840
vn 0.0169 0.0000 -0.9999
usemtl Material.001
s off
f 42/1/1 46/2/1 50/3/1 39/4/1
f 51/5/2 56/6/2 83/7/2
f 54/8/3 57/9/3 63/10/3 59/11/3
f 68/12/4 76/13/4 130/14/4 128/15/4
f 40/16/5 53/17/5 60/18/5 43/19/5
f 58/20/2 4/21/2 47/22/2 64/23/2
f 77/24/6 69/25/6 92/26/6 90/27/6
f 41/28/7 52/29/7 84/30/7 86/31/7
f 8/32/8 55/33/8 85/34/8 9/35/8
f 7/36/5 3/37/5 11/38/5
f 44/39/5 61/40/5 79/41/5 67/42/5
f 65/43/2 48/44/2 75/45/2 71/46/2
f 82/47/5 62/48/5 100/49/5 107/50/5
f 93/51/9 87/52/9 89/53/9 91/54/9
f 12/55/5 81/56/5 94/57/5 17/58/5
f 80/59/10 72/60/10 88/61/10 18/62/10
f 13/63/2 10/64/2 16/65/2 15/66/2
f 96/67/2 104/68/2 116/69/2 110/70/2
f 73/71/4 14/72/4 106/73/4 103/74/4
f 66/75/2 74/76/2 105/77/2 97/78/2
f 5/79/11 6/80/11 95/81/11 99/82/11
f 112/83/12 109/84/12 115/85/12 117/86/12
f 21/87/4 108/88/4 118/89/4 25/90/4
f 22/91/5 101/92/5 113/93/5 26/94/5
f 111/95/12 114/96/12 145/97/12 143/98/12
f 129/99/4 132/100/4 141/101/4 140/102/4
f 49/103/11 45/104/11 119/105/11 123/106/11
f 1/107/5 70/108/5 127/109/5 120/110/5
f 78/111/2 2/112/2 124/113/2 131/114/2
f 136/115/13 133/116/13 139/117/13 142/118/13
f 126/119/14 122/120/14 148/121/14 149/122/14
f 30/123/2 125/124/2 137/125/2 34/126/2
f 121/127/5 29/128/5 33/129/5 134/130/5
f 24/131/5 102/132/5 146/133/5
f 98/134/2 23/135/2 144/136/2
f 20/137/15 19/138/15 35/139/15 36/140/15
f 27/141/5 135/142/5 147/143/5
f 31/144/13 138/145/13 150/146/13 37/147/13
f 32/148/2 28/149/2 38/150/2
