# Blender v2.82 (sub 7) OBJ File: 'TempleOSObjects.blend'
# www.blender.org
mtllib TempleOSLeftSide.mtl
o LeftSide_Cylinder
v -0.544381 0.108156 0.043761
v -0.442385 0.137805 -0.083761
v -0.454905 0.107861 0.043761
v -0.361818 0.056703 -0.083761
v -0.391844 0.044382 0.043761
v -0.362196 -0.057614 -0.083761
v -0.392140 -0.045095 0.043761
v -0.443297 -0.138181 -0.083761
v -0.455619 -0.108155 0.043761
v -0.557615 -0.137803 -0.083761
v -0.545095 -0.107859 0.043761
v -0.638182 -0.056702 -0.083761
v -0.608155 -0.044380 0.043761
v -0.637804 0.057616 -0.083761
v -0.607860 0.045096 0.043761
v -0.556702 0.138183 -0.083761
v -0.513343 -0.011031 -0.021448
v -0.513343 0.017077 -0.021448
v -0.513343 -0.011031 -0.490330
v -0.513343 0.017077 -0.490330
v -0.485235 -0.011031 -0.021448
v -0.485235 0.017077 -0.021448
v -0.485235 -0.011031 -0.490330
v -0.485235 0.017077 -0.490330
v -0.391913 -0.011006 -0.076171
v -0.391913 0.016384 -0.076171
v -0.511602 -0.011006 -0.466371
v -0.511602 0.016384 -0.466371
v -0.365727 -0.011006 -0.084203
v -0.365727 0.016384 -0.084203
v -0.485416 -0.011006 -0.474403
v -0.485416 0.016384 -0.474403
v -0.486350 -0.011006 -0.466123
v -0.486350 0.016384 -0.466123
v -0.607356 -0.011006 -0.076330
v -0.607356 0.016384 -0.076330
v -0.512509 -0.011006 -0.474244
v -0.512509 0.016384 -0.474244
v -0.633514 -0.011006 -0.084451
v -0.633514 0.016384 -0.084451
vt 1.000000 0.500000
vt 1.000000 1.000000
vt 0.921875 1.000000
vt 0.921875 0.500000
vt 0.796875 1.000000
vt 0.796875 0.500000
vt 0.671875 1.000000
vt 0.671875 0.500000
vt 0.546875 1.000000
vt 0.546875 0.500000
vt 0.421875 1.000000
vt 0.421875 0.500000
vt 0.296875 1.000000
vt 0.296875 0.500000
vt 0.171875 1.000000
vt 0.171875 0.500000
vt 0.046875 1.000000
vt 0.046875 0.500000
vt 0.360427 0.456594
vt 0.182000 0.474168
vt 0.043406 0.360427
vt 0.025832 0.182000
vt 0.139573 0.043406
vt 0.318001 0.025832
vt 0.456594 0.139573
vt 0.474168 0.318001
vt 0.682000 0.474168
vt 0.860427 0.456594
vt 0.974168 0.318001
vt 0.956594 0.139573
vt 0.818001 0.025832
vt 0.639573 0.043406
vt 0.525832 0.182000
vt 0.543406 0.360427
vt 0.375000 0.000000
vt 0.625000 0.000000
vt 0.625000 0.250000
vt 0.375000 0.250000
vt 0.625000 0.500000
vt 0.375000 0.500000
vt 0.625000 0.750000
vt 0.375000 0.750000
vt 0.625000 1.000000
vt 0.375000 1.000000
vt 0.125000 0.500000
vt 0.125000 0.750000
vt 0.875000 0.500000
vt 0.875000 0.750000
vt 0.375000 0.000000
vt 0.625000 0.000000
vt 0.625000 0.250000
vt 0.375000 0.250000
vt 0.625000 0.500000
vt 0.375000 0.500000
vt 0.625000 0.750000
vt 0.375000 0.750000
vt 0.625000 1.000000
vt 0.375000 1.000000
vt 0.125000 0.500000
vt 0.125000 0.750000
vt 0.875000 0.500000
vt 0.875000 0.750000
vt 0.375000 0.000000
vt 0.625000 0.000000
vt 0.625000 0.250000
vt 0.375000 0.250000
vt 0.625000 0.500000
vt 0.375000 0.500000
vt 0.625000 0.750000
vt 0.375000 0.750000
vt 0.625000 1.000000
vt 0.375000 1.000000
vt 0.125000 0.500000
vt 0.125000 0.750000
vt 0.875000 0.500000
vt 0.875000 0.750000
vn 0.0032 0.9734 0.2289
vn 0.6906 0.6861 0.2289
vn 0.9734 -0.0032 0.2289
vn 0.6861 -0.6906 0.2289
vn -0.0032 -0.9734 0.2289
vn -0.6906 -0.6861 0.2289
vn -0.9734 0.0032 0.2289
vn -0.6861 0.6906 0.2289
vn -0.0000 -0.0000 1.0000
vn 0.0000 0.0000 -1.0000
vn -1.0000 0.0000 0.0000
vn 1.0000 -0.0000 0.0000
vn 0.0000 -1.0000 -0.0000
vn 0.0000 1.0000 0.0000
vn -0.9560 0.0000 0.2933
vn -0.2933 0.0000 -0.9560
vn 0.9560 0.0000 -0.2933
vn 0.2933 0.0000 0.9560
vn 0.9550 0.0000 0.2965
vn -0.2965 0.0000 0.9550
vn -0.9550 0.0000 -0.2965
vn 0.2965 0.0000 -0.9550
usemtl None
s off
f 16/1/1 1/2/1 3/3/1 2/4/1
f 2/4/2 3/3/2 5/5/2 4/6/2
f 4/6/3 5/5/3 7/7/3 6/8/3
f 6/8/4 7/7/4 9/9/4 8/10/4
f 8/10/5 9/9/5 11/11/5 10/12/5
f 10/12/6 11/11/6 13/13/6 12/14/6
f 12/14/7 13/13/7 15/15/7 14/16/7
f 14/16/8 15/15/8 1/17/8 16/18/8
f 3/19/9 1/20/9 15/21/9 13/22/9 11/23/9 9/24/9 7/25/9 5/26/9
f 16/27/10 2/28/10 4/29/10 6/30/10 8/31/10 10/32/10 12/33/10 14/34/10
f 17/35/11 18/36/11 20/37/11 19/38/11
f 19/38/10 20/37/10 24/39/10 23/40/10
f 23/40/12 24/39/12 22/41/12 21/42/12
f 21/42/9 22/41/9 18/43/9 17/44/9
f 19/45/13 23/40/13 21/42/13 17/46/13
f 24/39/14 20/47/14 18/48/14 22/41/14
f 25/49/15 26/50/15 28/51/15 27/52/15
f 27/52/16 28/51/16 32/53/16 31/54/16
f 31/54/17 32/53/17 30/55/17 29/56/17
f 29/56/18 30/55/18 26/57/18 25/58/18
f 27/59/13 31/54/13 29/56/13 25/60/13
f 32/53/14 28/61/14 26/62/14 30/55/14
f 33/63/19 34/64/19 36/65/19 35/66/19
f 35/66/20 36/65/20 40/67/20 39/68/20
f 39/68/21 40/67/21 38/69/21 37/70/21
f 37/70/22 38/69/22 34/71/22 33/72/22
f 35/73/13 39/68/13 37/70/13 33/74/13
f 40/67/14 36/75/14 34/76/14 38/69/14
