# Blender v2.82 (sub 7) OBJ File: 'TempleOSObjects.blend'
# www.blender.org
mtllib TempleOSTop.mtl
o TempleTop_Cube.002
v -0.539531 -0.068816 -0.486248
v -0.539531 0.068816 -0.486248
v 0.000000 0.068816 -0.707563
v 0.539531 -0.068816 -0.486248
v 0.539531 0.068816 -0.486248
v 0.000000 -0.068816 -0.707563
vt 0.170477 0.248444
vt 0.293155 0.248444
vt 0.293155 0.371122
vt 0.170477 0.371122
vt 0.170477 0.493799
vt 0.293155 0.493799
vt 0.293155 0.616477
vt 0.170477 0.616477
vt 0.293155 0.739154
vt 0.170477 0.739154
vt 0.047800 0.616477
vt 0.415832 0.493799
vt 0.415832 0.616477
vn -0.3795 0.0000 -0.9252
vn 0.3795 0.0000 -0.9252
vn 0.0000 0.0000 1.0000
vn 0.0000 -1.0000 0.0000
vn 0.0000 1.0000 0.0000
usemtl Material.001
s off
f 1/1/1 2/2/1 3/3/1 6/4/1
f 6/5/2 3/6/2 5/7/2 4/8/2
f 4/8/3 5/7/3 2/9/3 1/10/3
f 6/5/4 4/8/4 1/11/4
f 3/12/5 2/13/5 5/7/5
