# Blender v2.82 (sub 7) OBJ File: 'TempleOSObjects.blend'
# www.blender.org
mtllib TempleOSSword.mtl
o Sword_Cube.001
v -0.551286 -0.040000 0.536219
v -0.551286 0.040000 0.536219
v 0.677374 0.007835 -0.932937
v -0.445364 -0.040000 0.625420
v -0.445364 0.040000 0.625420
v 0.783297 0.007835 -0.843736
v -0.611651 0.040000 0.607901
v -0.611651 -0.040000 0.607901
v -0.505729 0.040000 0.697101
v -0.505729 -0.040000 0.697101
v -0.795684 0.040000 1.022504
v -0.869882 0.040000 0.961349
v -0.869882 -0.040000 0.961349
v -0.795684 -0.040000 1.022504
v -0.391521 0.040000 0.670762
v -0.391521 -0.040000 0.670762
v -0.451886 0.040000 0.742444
v -0.451886 -0.040000 0.742444
v -0.320614 0.040000 0.730475
v -0.320614 -0.040000 0.730475
v -0.380980 0.040000 0.802157
v -0.380980 -0.040000 0.802157
v -0.604986 -0.040000 0.490997
v -0.604986 0.040000 0.490997
v -0.665351 -0.040000 0.562678
v -0.665351 0.040000 0.562678
v -0.673222 -0.040000 0.433533
v -0.673222 0.040000 0.433533
v -0.733587 -0.040000 0.505214
v -0.733587 0.040000 0.505214
v -0.272027 0.040000 0.672779
v -0.272027 -0.040000 0.672779
v -0.626196 -0.040000 0.377692
v -0.626196 0.040000 0.377692
v 0.677374 -0.007835 -0.932937
v 0.677374 -0.007835 -0.932937
v -0.551286 -0.007835 0.536219
v -0.551286 -0.040000 0.536219
v -0.551286 -0.040000 0.536219
v -0.551286 0.007835 0.536219
v -0.551286 0.040000 0.536219
v -0.551286 0.040000 0.536219
v 0.677374 0.007835 -0.932937
v 0.783297 -0.007835 -0.843736
v 0.783297 -0.007835 -0.843736
v 0.783297 0.007835 -0.843736
v -0.445364 -0.007835 0.625420
v -0.445364 -0.040000 0.625420
v -0.445364 -0.040000 0.625420
v -0.445364 0.007835 0.625420
v -0.445364 0.040000 0.625420
v -0.445364 0.040000 0.625420
v -0.611651 -0.040000 0.607901
v -0.611651 -0.040000 0.607901
v -0.611651 -0.040000 0.607901
v -0.611651 -0.040000 0.607901
v -0.505729 0.040000 0.697101
v -0.505729 0.040000 0.697101
v -0.505729 0.040000 0.697101
v -0.505729 0.040000 0.697101
v -0.611651 0.040000 0.607901
v -0.611651 0.040000 0.607901
v -0.611651 0.040000 0.607901
v -0.611651 0.040000 0.607901
v -0.505729 -0.040000 0.697101
v -0.505729 -0.040000 0.697101
v -0.505729 -0.040000 0.697101
v -0.505729 -0.040000 0.697101
v -0.795684 0.040000 1.022504
v -0.795684 0.040000 1.022504
v -0.869882 0.040000 0.961349
v -0.869882 0.040000 0.961349
v -0.869882 -0.040000 0.961349
v -0.869882 -0.040000 0.961349
v -0.795684 -0.040000 1.022504
v -0.795684 -0.040000 1.022504
v -0.391521 0.040000 0.670762
v -0.391521 0.040000 0.670762
v -0.391521 0.040000 0.670762
v -0.391521 0.040000 0.670762
v -0.391521 -0.040000 0.670762
v -0.391521 -0.040000 0.670762
v -0.391521 -0.040000 0.670762
v -0.391521 -0.040000 0.670762
v -0.451886 0.040000 0.742444
v -0.451886 0.040000 0.742444
v -0.451886 0.040000 0.742444
v -0.451886 -0.040000 0.742444
v -0.451886 -0.040000 0.742444
v -0.451886 -0.040000 0.742444
v -0.320614 0.040000 0.730475
v -0.320614 0.040000 0.730475
v -0.320614 0.040000 0.730475
v -0.320614 -0.040000 0.730475
v -0.320614 -0.040000 0.730475
v -0.320614 -0.040000 0.730475
v -0.380980 0.040000 0.802157
v -0.380980 0.040000 0.802157
v -0.380980 -0.040000 0.802157
v -0.380980 -0.040000 0.802157
v -0.604986 -0.040000 0.490997
v -0.604986 -0.040000 0.490997
v -0.604986 -0.040000 0.490997
v -0.604986 -0.040000 0.490997
v -0.604986 0.040000 0.490997
v -0.604986 0.040000 0.490997
v -0.604986 0.040000 0.490997
v -0.604986 0.040000 0.490997
v -0.665351 -0.040000 0.562678
v -0.665351 -0.040000 0.562678
v -0.665351 -0.040000 0.562678
v -0.665351 0.040000 0.562678
v -0.665351 0.040000 0.562678
v -0.665351 0.040000 0.562678
v -0.673222 -0.040000 0.433533
v -0.673222 -0.040000 0.433533
v -0.673222 -0.040000 0.433533
v -0.673222 0.040000 0.433533
v -0.673222 0.040000 0.433533
v -0.673222 0.040000 0.433533
v -0.733587 -0.040000 0.505214
v -0.733587 -0.040000 0.505214
v -0.733587 0.040000 0.505214
v -0.733587 0.040000 0.505214
v -0.272027 0.040000 0.672779
v -0.272027 0.040000 0.672779
v -0.272027 -0.040000 0.672779
v -0.272027 -0.040000 0.672779
v -0.626196 -0.040000 0.377692
v -0.626196 -0.040000 0.377692
v -0.626196 0.040000 0.377692
v -0.626196 0.040000 0.377692
v -0.498325 0.040000 0.580819
v 0.063044 0.007835 -0.198359
v 0.730336 0.040000 -0.888336
v 0.168966 0.007835 -0.109158
v 0.116005 0.040000 -0.153758
v 0.730336 -0.040000 -0.888336
v -0.498325 -0.040000 0.580819
v 0.063044 -0.007835 -0.198359
v 0.168966 -0.007835 -0.109158
v 0.116005 -0.040000 -0.153758
v 0.730336 -0.040000 -0.888336
v 0.677374 -0.007835 -0.932937
v -0.498325 -0.040000 0.580819
v -0.445364 -0.007835 0.625420
v -0.498325 0.040000 0.580819
v -0.551286 0.007835 0.536219
v 0.063044 -0.007835 -0.198359
v 0.063044 -0.007835 -0.198359
v -0.551286 -0.007835 0.536219
v 0.063044 0.007835 -0.198359
v 0.063044 0.007835 -0.198359
v 0.677374 0.007835 -0.932937
v 0.730336 0.040000 -0.888336
v 0.783297 0.007835 -0.843736
v 0.168966 -0.007835 -0.109158
v 0.168966 -0.007835 -0.109158
v 0.783297 -0.007835 -0.843736
v 0.168966 0.007835 -0.109158
v 0.168966 0.007835 -0.109158
v -0.445364 0.007835 0.625420
v 0.116005 0.040000 -0.153758
v 0.116005 0.040000 -0.153758
v 0.116005 0.040000 -0.153758
v 0.116005 -0.040000 -0.153758
v 0.116005 -0.040000 -0.153758
v 0.116005 -0.040000 -0.153758
v 0.812774 0.006667 -0.986229
v 0.810887 0.008023 -0.987818
v 0.812774 0.009518 -0.986229
v 0.814662 0.008232 -0.984639
v 0.812774 0.009518 -0.986229
v 0.730336 -0.040000 -0.888336
v 0.730336 -0.040000 -0.888336
v 0.677374 -0.007835 -0.932937
v 0.677374 -0.007835 -0.932937
v 0.677374 0.007835 -0.932937
v 0.677374 -0.007835 -0.932937
v 0.677374 0.007835 -0.932937
v 0.677374 0.007835 -0.932937
v 0.730336 0.040000 -0.888336
v 0.783297 0.007835 -0.843736
v 0.783297 0.007835 -0.843736
v 0.730336 0.040000 -0.888336
v 0.783297 0.007835 -0.843736
v 0.783297 -0.007835 -0.843736
v 0.812774 0.006667 -0.986229
v 0.812774 0.006667 -0.986229
v 0.810887 0.008023 -0.987818
v 0.810887 0.008023 -0.987818
v 0.810887 0.008023 -0.987818
v 0.810887 0.008023 -0.987818
v 0.810887 0.008023 -0.987818
v 0.812774 0.009518 -0.986229
v 0.814662 0.008232 -0.984639
v 0.814662 0.008232 -0.984639
v 0.814662 0.008232 -0.984639
v 0.814662 0.008232 -0.984639
vt 0.454192 0.374638
vt 0.536506 0.374638
vt 0.536506 0.374638
vt 0.454192 0.374638
vt 0.097383 0.510076
vt 0.128170 0.510076
vt 0.128170 0.540863
vt 0.097383 0.540863
vt 0.220530 0.510076
vt 0.251317 0.510076
vt 0.251317 0.540863
vt 0.220530 0.540863
vt 0.184121 0.312534
vt 0.102789 0.312534
vt 0.102789 0.312534
vt 0.184121 0.312534
vt 0.000000 0.000000
vt 0.000000 0.000000
vt 0.000000 0.000000
vt 0.371878 0.621580
vt 0.454192 0.621580
vt 0.454192 0.621580
vt 0.371878 0.621580
vt 0.536506 0.621580
vt 0.618821 0.621580
vt 0.618821 0.621580
vt 0.536506 0.621580
vt 0.454192 0.621580
vt 0.454192 0.621580
vt 0.454192 0.621580
vt 0.454192 0.621580
vt 0.102789 0.556528
vt 0.184121 0.556528
vt 0.184121 0.637860
vt 0.102789 0.637860
vt 0.021458 0.556528
vt 0.102789 0.556528
vt 0.102789 0.556528
vt 0.021458 0.556528
vt 0.102789 0.556528
vt 0.184121 0.556528
vt 0.184121 0.556528
vt 0.102789 0.556528
vt 0.184121 0.556528
vt 0.265452 0.556528
vt 0.265452 0.556528
vt 0.184121 0.556528
vt 0.536506 0.621580
vt 0.536506 0.621580
vt 0.536506 0.621580
vt 0.536506 0.621580
vt 0.536506 0.621580
vt 0.454192 0.621580
vt 0.454192 0.621580
vt 0.536506 0.621580
vt 0.536506 0.621580
vt 0.536506 0.621580
vt 0.536506 0.621580
vt 0.536506 0.621580
vt 0.454192 0.621580
vt 0.536506 0.621580
vt 0.536506 0.621580
vt 0.454192 0.621580
vt 0.454192 0.621580
vt 0.536506 0.621580
vt 0.536506 0.621580
vt 0.454192 0.621580
vt 0.536506 0.621580
vt 0.454192 0.621580
vt 0.454192 0.621580
vt 0.536506 0.621580
vt 0.454192 0.621580
vt 0.454192 0.621580
vt 0.454192 0.621580
vt 0.454192 0.621580
vt 0.536506 0.621580
vt 0.454192 0.621580
vt 0.454192 0.621580
vt 0.536506 0.621580
vt 0.454192 0.374638
vt 0.536506 0.374638
vt 0.536506 0.374638
vt 0.454192 0.374638
vt 0.536506 0.374638
vt 0.454192 0.374638
vt 0.454192 0.374638
vt 0.536506 0.374638
vt 0.371878 0.621580
vt 0.371878 0.621580
vt 0.371878 0.621580
vt 0.371878 0.621580
vt 0.618821 0.621580
vt 0.618821 0.621580
vt 0.618821 0.621580
vt 0.618821 0.621580
vt 0.536506 0.374638
vt 0.454192 0.374638
vt 0.454192 0.374638
vt 0.536506 0.374638
vt 0.536506 0.374638
vt 0.454192 0.374638
vt 0.454192 0.374638
vt 0.536506 0.374638
vt 0.618821 0.621580
vt 0.618821 0.621580
vt 0.618821 0.621580
vt 0.618821 0.621580
vt 0.371878 0.621580
vt 0.371878 0.621580
vt 0.371878 0.621580
vt 0.371878 0.621580
vt 0.454192 0.621580
vt 0.454192 0.621580
vt 0.454192 0.621580
vt 0.536506 0.621580
vt 0.536506 0.621580
vt 0.536506 0.621580
vt 0.454192 0.621580
vt 0.536506 0.621580
vt 0.536506 0.621580
vt 0.454192 0.621580
vt 0.371878 0.621580
vt 0.371878 0.621580
vt 0.371878 0.621580
vt 0.454192 0.374638
vt 0.536506 0.374638
vt 0.536506 0.374638
vt 0.454192 0.374638
vt 0.618821 0.621580
vt 0.618821 0.621580
vt 0.618821 0.621580
vt 0.189744 0.510076
vt 0.220530 0.510076
vt 0.220530 0.540863
vt 0.189744 0.540863
vt 0.189744 0.479289
vt 0.220530 0.479289
vt 0.220530 0.510076
vt 0.189744 0.510076
vt 0.220530 0.479289
vt 0.251317 0.479289
vt 0.251317 0.510076
vt 0.220530 0.510076
vt 0.066596 0.510076
vt 0.097383 0.510076
vt 0.097383 0.540863
vt 0.066596 0.540863
vt 0.066596 0.479289
vt 0.097383 0.479289
vt 0.097383 0.510076
vt 0.066596 0.510076
vt 0.097383 0.479289
vt 0.128170 0.479289
vt 0.128170 0.510076
vt 0.097383 0.510076
vt 0.128170 0.510076
vt 0.128170 0.479289
vt 0.189744 0.479289
vt 0.189744 0.510076
vt 0.189744 0.540863
vt 0.128170 0.540863
vt 0.066596 0.510076
vt 0.066596 0.540863
vt 0.251317 0.540863
vt 0.251317 0.510076
vt 0.251317 0.479289
vt 0.066596 0.479289
vt 0.000000 0.000000
vt 0.000000 0.000000
vt 0.000000 0.000000
vt 0.251317 0.479289
vt 0.220530 0.479289
vt 0.220530 0.479289
vt 0.251317 0.479289
vt 0.097383 0.479289
vt 0.066596 0.479289
vt 0.220530 0.479289
vt 0.189744 0.479289
vt 0.000000 0.000000
vt 0.000000 0.000000
vt 0.000000 0.000000
vt 0.000000 0.000000
vt 0.000000 0.000000
vt 0.000000 0.000000
vt 0.220530 0.479289
vt 0.189744 0.479289
vt 0.189744 0.479289
vt 0.220530 0.479289
vt 0.000000 0.000000
vt 0.000000 0.000000
vt 0.000000 0.000000
vt 0.000000 0.000000
vt 0.097383 0.479289
vt 0.066596 0.479289
vt 0.066596 0.479289
vt 0.097383 0.479289
vt 0.066596 0.479289
vt 0.000000 0.000000
vt 0.066596 0.479289
vn -0.6441 0.0000 0.7649
vn 0.3232 -0.9069 0.2703
vn -0.3232 0.9069 -0.2703
vn -0.8075 0.0000 -0.5899
vn 0.0000 0.0000 1.0000
vn 0.0000 -1.0000 0.0000
vn 0.0000 1.0000 0.0000
vn -0.6360 0.0000 0.7717
vn 0.7466 0.0000 0.6653
vn 0.6441 0.0000 -0.7649
vn 0.7649 0.0000 0.6441
vn -0.7649 0.0000 -0.6441
vn 0.9829 0.0000 -0.1840
vn 0.0169 0.0000 -0.9999
vn 0.3232 0.9069 0.2703
vn -0.3232 -0.9069 -0.2703
vn 0.7671 -0.0000 0.6415
vn -0.7671 0.0000 -0.6415
vn -0.3802 0.0000 -0.9249
vn -0.1804 0.8845 -0.4303
vn 0.9761 0.0000 0.2173
vn 0.4525 0.8857 0.1041
vn 0.5123 -0.8586 0.0186
vn -0.1046 -0.8598 -0.4998
usemtl Material.001
s off
f 54/1/1 62/2/1 112/3/1 110/4/1
f 166/5/2 158/6/2 146/7/2 145/8/2
f 163/9/3 153/10/3 148/11/3 147/12/3
f 63/13/4 55/14/4 74/15/4 72/16/4
f 184/17/5 6/18/5 197/19/5
f 38/20/6 48/21/6 65/22/6 53/23/6
f 51/24/7 41/25/7 61/26/7 57/27/7
f 68/28/6 49/29/6 82/30/6 89/31/6
f 75/32/8 69/33/8 71/34/8 73/35/8
f 8/36/6 67/37/6 76/38/6 13/39/6
f 66/40/9 58/41/9 70/42/9 14/43/9
f 9/44/7 7/45/7 12/46/7 11/47/7
f 78/48/7 86/49/7 98/50/7 92/51/7
f 59/52/1 10/53/1 88/54/1 85/55/1
f 52/56/7 60/57/7 87/58/7 79/59/7
f 4/60/10 5/61/10 77/62/10 81/63/10
f 94/64/11 91/65/11 97/66/11 99/67/11
f 17/68/1 90/69/1 100/70/1 21/71/1
f 18/72/6 83/73/6 95/74/6 22/75/6
f 93/76/11 96/77/11 127/78/11 125/79/11
f 111/80/1 114/81/1 123/82/1 122/83/1
f 42/84/10 39/85/10 101/86/10 105/87/10
f 1/88/6 56/89/6 109/90/6 102/91/6
f 64/92/7 2/93/7 106/94/7 113/95/7
f 118/96/12 115/97/12 121/98/12 124/99/12
f 108/100/13 104/101/13 130/102/13 131/103/13
f 26/104/7 107/105/7 119/106/7 30/107/7
f 103/108/6 25/109/6 29/110/6 116/111/6
f 20/112/6 84/113/6 128/114/6
f 80/115/7 19/116/7 126/117/7
f 16/118/14 15/119/14 31/120/14 32/121/14
f 23/122/6 117/123/6 129/124/6
f 27/125/12 120/126/12 132/127/12 33/128/12
f 28/129/7 24/130/7 34/131/7
f 160/132/15 165/133/15 133/134/15 162/135/15
f 183/136/15 182/137/15 164/138/15 161/139/15
f 135/140/3 180/141/3 152/142/3 137/143/3
f 149/144/16 168/145/16 139/146/16 151/147/16
f 176/148/16 174/149/16 167/150/16 150/151/16
f 138/152/2 159/153/2 157/154/2 142/155/2
f 39/85/10 42/84/10 5/61/10 4/60/10
f 141/156/17 44/157/17 46/158/17 136/159/17 50/160/17 47/161/17
f 140/162/18 37/163/18 40/164/18 134/165/18 3/166/18 35/167/18
f 179/168/19 178/169/19 192/170/19
f 154/171/20 185/172/20 173/173/20 193/174/20
f 188/175/10 190/176/10 195/177/10 196/178/10
f 186/179/21 187/180/21 198/181/21
f 43/182/5 181/183/5 170/184/5
f 155/185/22 156/186/22 199/187/22 171/188/22
f 45/189/23 175/190/23 189/191/23 172/192/23
f 143/193/24 177/194/24 191/195/24 169/196/24
f 144/197/5 36/198/5 194/199/5
